<svg id="visual" viewBox="0 0 900 600" width="900" height="600" xmlns="http://www.w3.org/2000/svg" xmlns:xlink="http://www.w3.org/1999/xlink" version="1.1"><g stroke-width="1" stroke-linejoin="bevel"><path d="M404 265L463 177L421 181Z" fill="#fafbfc" stroke="#fafbfc"></path><path d="M404 265L518 285L463 177Z" fill="#fdfdfd" stroke="#fdfdfd"></path><path d="M518 285L605 230L463 177Z" fill="#fdfefe" stroke="#fdfefe"></path><path d="M404 265L489 361L518 285Z" fill="#fafbfb" stroke="#fafbfb"></path><path d="M518 285L489 361L566 291Z" fill="#f8fafa" stroke="#f8fafa"></path><path d="M463 177L375 109L421 181Z" fill="#fafbfb" stroke="#fafbfb"></path><path d="M421 181L291 204L404 265Z" fill="#fdfefe" stroke="#fdfefe"></path><path d="M375 109L291 204L421 181Z" fill="#f9fafb" stroke="#f9fafb"></path><path d="M404 265L436 425L489 361Z" fill="#fafbfb" stroke="#fafbfb"></path><path d="M566 291L605 230L518 285Z" fill="#ffffff" stroke="#ffffff"></path><path d="M463 177L490 62L375 109Z" fill="#fafbfb" stroke="#fafbfb"></path><path d="M291 204L315 339L404 265Z" fill="#fafbfb" stroke="#fafbfb"></path><path d="M630 68L490 62L463 177Z" fill="#fefefe" stroke="#fefefe"></path><path d="M433 0L314 93L375 109Z" fill="#fdfdfd" stroke="#fdfdfd"></path><path d="M375 109L314 93L291 204Z" fill="#f8f9fa" stroke="#f8f9fa"></path><path d="M315 339L436 425L404 265Z" fill="#f8fafa" stroke="#f8fafa"></path><path d="M489 361L592 375L566 291Z" fill="#fefefe" stroke="#fefefe"></path><path d="M599 476L592 375L489 361Z" fill="#fafbfc" stroke="#fafbfc"></path><path d="M566 291L683 308L605 230Z" fill="#f8f9fa" stroke="#f8f9fa"></path><path d="M213 433L310 406L315 339Z" fill="#fafbfb" stroke="#fafbfb"></path><path d="M315 339L310 406L436 425Z" fill="#fdfdfd" stroke="#fdfdfd"></path><path d="M239 99L221 221L291 204Z" fill="#fefefe" stroke="#fefefe"></path><path d="M291 204L221 221L315 339Z" fill="#fafbfc" stroke="#fafbfc"></path><path d="M490 62L433 0L375 109Z" fill="#fafbfc" stroke="#fafbfc"></path><path d="M567 0L499 0L490 62Z" fill="#f8f9fa" stroke="#f8f9fa"></path><path d="M490 62L499 0L433 0Z" fill="#fdfdfd" stroke="#fdfdfd"></path><path d="M688 169L630 68L605 230Z" fill="#fdfefe" stroke="#fdfefe"></path><path d="M605 230L630 68L463 177Z" fill="#fdfefe" stroke="#fdfefe"></path><path d="M314 93L239 99L291 204Z" fill="#fefefe" stroke="#fefefe"></path><path d="M290 0L239 99L314 93Z" fill="#fefefe" stroke="#fefefe"></path><path d="M592 375L683 308L566 291Z" fill="#fcfdfd" stroke="#fcfdfd"></path><path d="M683 308L688 169L605 230Z" fill="#f9fafb" stroke="#f9fafb"></path><path d="M630 68L567 0L490 62Z" fill="#fdfdfd" stroke="#fdfdfd"></path><path d="M118 282L186 261L91 167Z" fill="#f8fafa" stroke="#f8fafa"></path><path d="M221 221L186 261L315 339Z" fill="#fdfefe" stroke="#fdfefe"></path><path d="M688 169L689 124L630 68Z" fill="#fbfcfc" stroke="#fbfcfc"></path><path d="M630 68L680 0L567 0Z" fill="#fcfdfd" stroke="#fcfdfd"></path><path d="M592 375L670 387L683 308Z" fill="#fefefe" stroke="#fefefe"></path><path d="M599 476L670 387L592 375Z" fill="#fbfcfc" stroke="#fbfcfc"></path><path d="M309 489L433 507L436 425Z" fill="#fefefe" stroke="#fefefe"></path><path d="M436 425L599 476L489 361Z" fill="#ffffff" stroke="#ffffff"></path><path d="M433 0L290 0L314 93Z" fill="#fcfdfd" stroke="#fcfdfd"></path><path d="M484 533L599 476L436 425Z" fill="#fefefe" stroke="#fefefe"></path><path d="M213 433L309 489L310 406Z" fill="#fafbfb" stroke="#fafbfb"></path><path d="M310 406L309 489L436 425Z" fill="#f8fafa" stroke="#f8fafa"></path><path d="M372 600L484 533L433 507Z" fill="#f9fafb" stroke="#f9fafb"></path><path d="M433 507L484 533L436 425Z" fill="#fafbfb" stroke="#fafbfb"></path><path d="M186 261L213 433L315 339Z" fill="#fafbfb" stroke="#fafbfb"></path><path d="M689 124L680 0L630 68Z" fill="#fcfdfd" stroke="#fcfdfd"></path><path d="M626 600L680 462L599 476Z" fill="#fdfefe" stroke="#fdfefe"></path><path d="M599 476L680 462L670 387Z" fill="#fefefe" stroke="#fefefe"></path><path d="M790 388L796 279L683 308Z" fill="#ffffff" stroke="#ffffff"></path><path d="M683 308L796 279L688 169Z" fill="#ffffff" stroke="#ffffff"></path><path d="M91 167L186 261L221 221Z" fill="#f8f9fa" stroke="#f8f9fa"></path><path d="M186 261L118 282L213 433Z" fill="#fafbfb" stroke="#fafbfb"></path><path d="M91 167L221 221L239 99Z" fill="#f8f9fa" stroke="#f8f9fa"></path><path d="M290 0L206 0L239 99Z" fill="#fdfdfd" stroke="#fdfdfd"></path><path d="M790 388L683 308L670 387Z" fill="#fcfdfd" stroke="#fcfdfd"></path><path d="M688 169L800 169L689 124Z" fill="#f9fafb" stroke="#f9fafb"></path><path d="M689 124L787 0L680 0Z" fill="#fafbfb" stroke="#fafbfb"></path><path d="M796 279L800 169L688 169Z" fill="#fafbfc" stroke="#fafbfc"></path><path d="M92 61L91 167L239 99Z" fill="#fafbfc" stroke="#fafbfc"></path><path d="M64 532L225 518L213 433Z" fill="#fdfefe" stroke="#fdfefe"></path><path d="M213 433L225 518L309 489Z" fill="#fafbfc" stroke="#fafbfc"></path><path d="M309 489L372 600L433 507Z" fill="#fdfefe" stroke="#fdfefe"></path><path d="M337 600L372 600L309 489Z" fill="#f8fafa" stroke="#f8fafa"></path><path d="M484 533L535 600L599 476Z" fill="#ffffff" stroke="#ffffff"></path><path d="M680 462L790 388L670 387Z" fill="#fdfdfd" stroke="#fdfdfd"></path><path d="M372 600L535 600L484 533Z" fill="#fcfdfd" stroke="#fcfdfd"></path><path d="M680 462L785 462L790 388Z" fill="#f8fafa" stroke="#f8fafa"></path><path d="M225 518L337 600L309 489Z" fill="#fafbfc" stroke="#fafbfc"></path><path d="M0 318L95 397L118 282Z" fill="#fdfdfd" stroke="#fdfdfd"></path><path d="M118 282L95 397L213 433Z" fill="#fafbfb" stroke="#fafbfb"></path><path d="M206 0L92 61L239 99Z" fill="#ffffff" stroke="#ffffff"></path><path d="M900 188L800 169L796 279Z" fill="#fbfcfc" stroke="#fbfcfc"></path><path d="M900 188L830 133L800 169Z" fill="#f9fafb" stroke="#f9fafb"></path><path d="M800 169L830 133L689 124Z" fill="#fdfdfd" stroke="#fdfdfd"></path><path d="M716 600L785 462L680 462Z" fill="#fdfefe" stroke="#fdfefe"></path><path d="M790 388L900 266L796 279Z" fill="#f8f9fa" stroke="#f8f9fa"></path><path d="M830 133L787 0L689 124Z" fill="#fafbfb" stroke="#fafbfb"></path><path d="M535 600L626 600L599 476Z" fill="#fefefe" stroke="#fefefe"></path><path d="M0 102L0 214L91 167Z" fill="#f8f9fa" stroke="#f8f9fa"></path><path d="M91 167L0 214L118 282Z" fill="#fefefe" stroke="#fefefe"></path><path d="M206 0L62 0L92 61Z" fill="#fdfdfd" stroke="#fdfdfd"></path><path d="M92 61L0 102L91 167Z" fill="#f8fafa" stroke="#f8fafa"></path><path d="M119 600L188 600L225 518Z" fill="#fefefe" stroke="#fefefe"></path><path d="M225 518L188 600L337 600Z" fill="#fcfdfd" stroke="#fcfdfd"></path><path d="M64 532L213 433L95 397Z" fill="#fdfefe" stroke="#fdfefe"></path><path d="M900 416L900 266L790 388Z" fill="#f8f9fa" stroke="#f8f9fa"></path><path d="M830 133L900 102L787 0Z" fill="#ffffff" stroke="#ffffff"></path><path d="M900 266L900 188L796 279Z" fill="#ffffff" stroke="#ffffff"></path><path d="M0 214L0 318L118 282Z" fill="#fafbfb" stroke="#fafbfb"></path><path d="M626 600L716 600L680 462Z" fill="#fefefe" stroke="#fefefe"></path><path d="M785 462L900 416L790 388Z" fill="#f9fafb" stroke="#f9fafb"></path><path d="M62 0L0 102L92 61Z" fill="#fcfdfd" stroke="#fcfdfd"></path><path d="M900 188L900 102L830 133Z" fill="#f9fafb" stroke="#f9fafb"></path><path d="M0 318L0 390L95 397Z" fill="#fbfcfc" stroke="#fbfcfc"></path><path d="M0 507L64 532L95 397Z" fill="#fafbfc" stroke="#fafbfc"></path><path d="M900 532L900 416L785 462Z" fill="#fbfcfc" stroke="#fbfcfc"></path><path d="M64 532L119 600L225 518Z" fill="#f8fafa" stroke="#f8fafa"></path><path d="M62 0L0 0L0 102Z" fill="#ffffff" stroke="#ffffff"></path><path d="M716 600L790 600L785 462Z" fill="#ffffff" stroke="#ffffff"></path><path d="M900 102L900 0L787 0Z" fill="#fefefe" stroke="#fefefe"></path><path d="M0 390L0 507L95 397Z" fill="#fbfcfc" stroke="#fbfcfc"></path><path d="M64 532L0 600L119 600Z" fill="#f8f9fa" stroke="#f8f9fa"></path><path d="M790 600L900 532L785 462Z" fill="#f8fafa" stroke="#f8fafa"></path><path d="M0 507L0 600L64 532Z" fill="#fdfefe" stroke="#fdfefe"></path><path d="M790 600L900 600L900 532Z" fill="#fafbfc" stroke="#fafbfc"></path></g></svg>